<svg width="512" height="512" viewBox="0 0 512 512" fill="none" xmlns="http://www.w3.org/2000/svg" role="img" aria-labelledby="title desc">
  <title id="title">Daily Paper Research Workflow logo</title>
  <desc id="desc">A paper stack flowing through an AI spark into Zotero and Obsidian notes.</desc>
  <defs>
    <linearGradient id="bg" x1="64" y1="36" x2="448" y2="476" gradientUnits="userSpaceOnUse">
      <stop stop-color="#16213E"/>
      <stop offset="0.48" stop-color="#165E7A"/>
      <stop offset="1" stop-color="#5E4AE3"/>
    </linearGradient>
    <linearGradient id="paper" x1="154" y1="122" x2="342" y2="322" gradientUnits="userSpaceOnUse">
      <stop stop-color="#FFFFFF"/>
      <stop offset="1" stop-color="#E9F4FF"/>
    </linearGradient>
    <linearGradient id="accent" x1="142" y1="338" x2="372" y2="396" gradientUnits="userSpaceOnUse">
      <stop stop-color="#28D3B0"/>
      <stop offset="1" stop-color="#FFB84D"/>
    </linearGradient>
    <filter id="shadow" x="38" y="46" width="436" height="426" filterUnits="userSpaceOnUse" color-interpolation-filters="sRGB">
      <feFlood flood-opacity="0" result="BackgroundImageFix"/>
      <feColorMatrix in="SourceAlpha" type="matrix" values="0 0 0 0 0 0 0 0 0 0 0 0 0 0 0 0 0 0 127 0" result="hardAlpha"/>
      <feOffset dy="18"/>
      <feGaussianBlur stdDeviation="20"/>
      <feComposite in2="hardAlpha" operator="out"/>
      <feColorMatrix type="matrix" values="0 0 0 0 0.03 0 0 0 0 0.05 0 0 0 0 0.11 0 0 0 0.22 0"/>
      <feBlend mode="normal" in2="BackgroundImageFix" result="effect1_dropShadow"/>
      <feBlend mode="normal" in="SourceGraphic" in2="effect1_dropShadow" result="shape"/>
    </filter>
  </defs>
  <rect width="512" height="512" rx="112" fill="url(#bg)"/>
  <g filter="url(#shadow)">
    <path d="M153 151C153 132.775 167.775 118 186 118H315.5L379 181.5V333C379 351.225 364.225 366 346 366H186C167.775 366 153 351.225 153 333V151Z" fill="url(#paper)"/>
    <path d="M315 119V169C315 176.18 320.82 182 328 182H378" stroke="#B8D1EC" stroke-width="14" stroke-linejoin="round"/>
    <path d="M192 214H318" stroke="#214263" stroke-width="18" stroke-linecap="round"/>
    <path d="M192 258H290" stroke="#426A8A" stroke-width="18" stroke-linecap="round"/>
    <path d="M192 302H328" stroke="#8CA8C0" stroke-width="18" stroke-linecap="round"/>
    <path d="M134 349C176.5 394 241 413 305 393C337 383 364 362.5 383 336" stroke="url(#accent)" stroke-width="22" stroke-linecap="round"/>
    <path d="M373 322L389 336L375 352" stroke="#FFB84D" stroke-width="18" stroke-linecap="round" stroke-linejoin="round"/>
  </g>
  <g>
    <circle cx="134" cy="132" r="23" fill="#28D3B0"/>
    <path d="M134 103V161M105 132H163" stroke="#EFFDF9" stroke-width="12" stroke-linecap="round"/>
    <circle cx="394" cy="388" r="24" fill="#FFB84D"/>
    <path d="M381 388H407M394 375V401" stroke="#33220C" stroke-width="10" stroke-linecap="round"/>
  </g>
</svg>

